<svg id="Layer_1" data-name="Layer 1" xmlns="http://www.w3.org/2000/svg" viewBox="0 0 280 171.11"><defs><style>.cls-1{fill:#fec303;}</style></defs><rect class="cls-1" width="280" height="171.11"/><path d="M63.46,79.29a9.87,9.87,0,0,1-1.58,5.54,10.33,10.33,0,0,1-4.57,3.76,16.85,16.85,0,0,1-7,1.34,27.88,27.88,0,0,1-5.62-.47A20.85,20.85,0,0,1,40,87.82V79.74a27,27,0,0,0,5.4,2.08,20,20,0,0,0,5.14.75,5.06,5.06,0,0,0,3-.7,2.15,2.15,0,0,0,.94-1.8A2,2,0,0,0,54,78.86a4.41,4.41,0,0,0-1.22-1,44.55,44.55,0,0,0-4.46-2.16,21.58,21.58,0,0,1-4.92-2.89A8.78,8.78,0,0,1,41,69.55a10.56,10.56,0,0,1-.8-4.29A8.61,8.61,0,0,1,43.57,58c2.25-1.72,5.34-2.59,9.27-2.59a25.94,25.94,0,0,1,10.62,2.41l-2.77,7a20.14,20.14,0,0,0-8.13-2.16,4.28,4.28,0,0,0-2.57.62,1.9,1.9,0,0,0-.8,1.54,2.22,2.22,0,0,0,1,1.77,38.51,38.51,0,0,0,5.54,2.84,15.35,15.35,0,0,1,6,4.19A9.12,9.12,0,0,1,63.46,79.29Z"/><path d="M93,66.59q0,5.63-3.32,8.69t-9.42,3.06H77.72V89.47H68.65V55.92H80.26q6.36,0,9.55,2.78T93,66.59ZM77.72,71h1.65a4.55,4.55,0,0,0,3.25-1.14,4.18,4.18,0,0,0,1.2-3.17c0-2.26-1.25-3.4-3.76-3.4H77.72Z"/><path d="M129.74,72.65q0,8.47-4.15,12.88t-12.17,4.4q-7.89,0-12.1-4.43T97.11,72.61q0-8.39,4.19-12.8t12.17-4.42q8,0,12.14,4.39T129.74,72.65Zm-23.09,0q0,9.73,6.77,9.73A5.81,5.81,0,0,0,118.53,80c1.11-1.58,1.66-4,1.66-7.37s-.56-5.82-1.68-7.42a5.77,5.77,0,0,0-5-2.4Q106.66,62.83,106.65,72.65Z"/><path d="M144.87,77.27v12.2H135.8V55.92h11q13.68,0,13.68,9.92,0,5.82-5.69,9l9.78,14.61H154.27l-7.11-12.2Zm0-6.82h1.69q4.75,0,4.75-4.2,0-3.47-4.65-3.47h-1.79Z"/><path d="M182.41,89.47h-9.06V63.34h-8.2V55.92h25.43v7.42h-8.17Z"/><path d="M195.38,89.47V55.92h9.11V89.47Z"/><path d="M242,89.47H231.48L224.94,79l-6.48,10.48H208.21l11.13-17.16L208.87,55.92h10L225,66.3l5.83-10.38h10.35L230.54,73Z"/><path d="M53.67,110.94a7,7,0,0,1-1.48,4.71,5.13,5.13,0,0,1-4.1,1.73,5.13,5.13,0,0,1-4.1-1.73,7,7,0,0,1-1.48-4.73,6.88,6.88,0,0,1,1.5-4.69,5.16,5.16,0,0,1,4.09-1.71,5.11,5.11,0,0,1,4.1,1.72A7,7,0,0,1,53.67,110.94Zm-10.21,0a6.39,6.39,0,0,0,1.19,4.15,4.18,4.18,0,0,0,3.44,1.47,4.19,4.19,0,0,0,3.44-1.46,7.78,7.78,0,0,0,0-8.3,4.18,4.18,0,0,0-3.43-1.44,4.26,4.26,0,0,0-3.44,1.45A6.33,6.33,0,0,0,43.46,110.94Z"/><path d="M66.94,117.2h-.88l-7.4-11.09h-.07c.07,1.33.11,2.32.11,3v8.1h-.84V104.71h.87l7.39,11.08h0c0-1-.07-2-.07-2.93v-8.15h.84Z"/><path d="M71.79,117.2V104.71h.87v11.67h6v.82Z"/><path d="M82.08,117.2V104.71H83V117.2Z"/><path d="M96.89,117.2H96l-7.4-11.09h-.07c.07,1.33.1,2.32.1,3v8.1h-.83V104.71h.87l7.39,11.08h.05c-.05-1-.08-2-.08-2.93v-8.15h.85Z"/><path d="M108.57,117.2h-6.83V104.71h6.83v.81h-6v4.72h5.62v.8h-5.62v5.36h6Z"/><path d="M125.46,114a3,3,0,0,1-1.15,2.48,4.74,4.74,0,0,1-3,.92,9.43,9.43,0,0,1-3.51-.51V116a8.89,8.89,0,0,0,3.44.57,3.85,3.85,0,0,0,2.44-.7,2.24,2.24,0,0,0,.9-1.85,2.13,2.13,0,0,0-.3-1.18,2.76,2.76,0,0,0-1-.85,13,13,0,0,0-2-.83,6.7,6.7,0,0,1-2.65-1.42,3,3,0,0,1,.37-4.32,4.35,4.35,0,0,1,2.82-.89,8.16,8.16,0,0,1,3.31.67l-.32.75a7.75,7.75,0,0,0-3-.65,3.56,3.56,0,0,0-2.21.64,2.12,2.12,0,0,0-.82,1.75,2.22,2.22,0,0,0,.26,1.13,2.25,2.25,0,0,0,.82.8,11,11,0,0,0,2,.85,10.62,10.62,0,0,1,2.19,1,3.06,3.06,0,0,1,1.07,1.08A2.85,2.85,0,0,1,125.46,114Z"/><path d="M136.93,108.3a3.33,3.33,0,0,1-1.23,2.78,5.54,5.54,0,0,1-3.48,1h-1.93v5.16h-.87V104.71h3.05C135.45,104.71,136.93,105.91,136.93,108.3Zm-6.64,3H132a5.22,5.22,0,0,0,3.05-.69,2.63,2.63,0,0,0,.95-2.26,2.54,2.54,0,0,0-.89-2.14,4.43,4.43,0,0,0-2.76-.7h-2.06Z"/><path d="M151.47,110.94a7,7,0,0,1-1.49,4.71,5.72,5.72,0,0,1-8.2,0,7,7,0,0,1-1.48-4.73,6.88,6.88,0,0,1,1.5-4.69,5.16,5.16,0,0,1,4.1-1.71,5.1,5.1,0,0,1,4.09,1.72A7,7,0,0,1,151.47,110.94Zm-10.22,0a6.45,6.45,0,0,0,1.19,4.15,4.78,4.78,0,0,0,6.89,0,7.83,7.83,0,0,0,0-8.3,4.81,4.81,0,0,0-6.87,0A6.28,6.28,0,0,0,141.25,110.94Z"/><path d="M156.52,111.76v5.44h-.87V104.71h3a5.63,5.63,0,0,1,3.44.86,3.07,3.07,0,0,1,1.11,2.59,3.41,3.41,0,0,1-.66,2.12,3.72,3.72,0,0,1-2,1.23l3.39,5.69h-1l-3.22-5.44Zm0-.75h2.39a3.75,3.75,0,0,0,2.45-.71,2.52,2.52,0,0,0,.87-2.08,2.43,2.43,0,0,0-.86-2.07,4.57,4.57,0,0,0-2.78-.65h-2.07Z"/><path d="M170.62,117.2h-.88V105.53h-4.06v-.82h9v.82h-4.06Z"/><path d="M190.6,114a3,3,0,0,1-1.15,2.48,4.79,4.79,0,0,1-3.06.92,9.5,9.5,0,0,1-3.51-.51V116a8.94,8.94,0,0,0,3.45.57,3.84,3.84,0,0,0,2.43-.7,2.22,2.22,0,0,0,.91-1.85,2.13,2.13,0,0,0-.3-1.18,2.8,2.8,0,0,0-1-.85,13,13,0,0,0-2-.83,6.57,6.57,0,0,1-2.64-1.42,3.05,3.05,0,0,1,.36-4.32,4.39,4.39,0,0,1,2.83-.89,8.15,8.15,0,0,1,3.3.67L190,106a7.79,7.79,0,0,0-3-.65,3.53,3.53,0,0,0-2.2.64,2.09,2.09,0,0,0-.82,1.75,2.23,2.23,0,0,0,.25,1.13,2.29,2.29,0,0,0,.83.8,10.79,10.79,0,0,0,2,.85,10.5,10.5,0,0,1,2.2,1,3.06,3.06,0,0,1,1.07,1.08A3,3,0,0,1,190.6,114Z"/><path d="M197.81,117.2h-.88V105.53h-4.06v-.82h9v.82h-4.05Z"/><path d="M215.53,110.94a7,7,0,0,1-1.48,4.71,5.72,5.72,0,0,1-8.2,0,7,7,0,0,1-1.48-4.73,6.88,6.88,0,0,1,1.49-4.69,5.18,5.18,0,0,1,4.1-1.71,5.08,5.08,0,0,1,4.09,1.72A7,7,0,0,1,215.53,110.94Zm-10.22,0a6.39,6.39,0,0,0,1.2,4.15,4.77,4.77,0,0,0,6.88,0,7.83,7.83,0,0,0,0-8.3,4.2,4.2,0,0,0-3.43-1.44,4.25,4.25,0,0,0-3.44,1.45A6.33,6.33,0,0,0,205.31,110.94Z"/><path d="M220.59,111.76v5.44h-.87V104.71h3a5.6,5.6,0,0,1,3.43.86,3.05,3.05,0,0,1,1.12,2.59,3.42,3.42,0,0,1-.67,2.12,3.69,3.69,0,0,1-2,1.23L228,117.2h-1l-3.22-5.44Zm0-.75H223a3.73,3.73,0,0,0,2.45-.71,2.52,2.52,0,0,0,.88-2.08,2.43,2.43,0,0,0-.86-2.07,4.61,4.61,0,0,0-2.78-.65h-2.07Z"/><path d="M238.26,117.2h-6.83V104.71h6.83v.81h-6v4.72h5.62v.8H232.3v5.36h6Z"/></svg>